<?xml version="1.0" encoding="utf-8"?><svg xmlns="http://www.w3.org/2000/svg" width="29" height="29" viewBox="0 0 29 29"><path d="M28.24 22.372l-5.87-3.915a1.713 1.713 0 00-2.294.373l-1.71 2.199a.73.73 0 01-.937.197l-.325-.18c-1.079-.587-2.42-1.319-5.123-4.023-2.703-2.704-3.436-4.046-4.024-5.122l-.178-.326a.732.732 0 01.193-.94l2.197-1.71c.703-.55.865-1.548.373-2.293L6.628.762A1.704 1.704 0 004.33.245L1.876 1.719A3.462 3.462 0 00.297 3.77c-.884 3.22-.219 8.778 7.969 16.966C14.779 27.247 19.627 29 22.96 29a8.56 8.56 0 002.271-.297 3.46 3.46 0 002.05-1.579l1.475-2.453a1.704 1.704 0 00-.517-2.298zm-.317 1.802l-1.472 2.455a2.497 2.497 0 01-1.474 1.142c-2.973.817-8.167.14-16.028-7.72C1.09 12.191.413 6.997 1.23 4.024a2.501 2.501 0 011.144-1.476l2.455-1.472a.74.74 0 01.997.224L7.95 4.492 9.736 7.17a.744.744 0 01-.162.996L7.377 9.874a1.691 1.691 0 00-.448 2.17l.175.318c.617 1.132 1.385 2.542 4.189 5.344 2.803 2.803 4.212 3.571 5.344 4.189l.317.175c.735.412 1.66.22 2.171-.448l1.71-2.198a.744.744 0 01.995-.16l5.87 3.914c.329.218.428.658.223.996zM16.433 4.836a8.225 8.225 0 018.215 8.215.483.483 0 10.967 0 9.192 9.192 0 00-9.182-9.182.483.483 0 100 .967z"/><path d="M16.433 7.735a5.322 5.322 0 015.316 5.316.483.483 0 00.966 0 6.29 6.29 0 00-6.282-6.282.483.483 0 100 .966z"/><path d="M16.433 10.635a2.42 2.42 0 012.416 2.416.483.483 0 10.967 0 3.387 3.387 0 00-3.383-3.383.483.483 0 100 .967z"/></svg>